<?xml version="1.0" standalone="no"?>
<!DOCTYPE svg PUBLIC "-//W3C//DTD SVG 20010904//EN"
 "http://www.w3.org/TR/2001/REC-SVG-20010904/DTD/svg10.dtd">
<svg version="1.0" xmlns="http://www.w3.org/2000/svg"
 width="1254.000000pt" height="1254.000000pt" viewBox="0 0 1254.000000 1254.000000"
 preserveAspectRatio="xMidYMid meet">
<metadata>
Created by potrace 1.16, written by Peter Selinger 2001-2019
</metadata>
<g transform="translate(0.000000,1254.000000) scale(0.100000,-0.100000)"
fill="#FFFFFF" stroke="none">
<path d="M5780 11173 c-102 -11 -310 -59 -441 -103 -420 -140 -816 -429 -895
-652 -19 -55 -17 -95 6 -147 17 -37 23 -42 43 -37 72 20 105 18 161 -9 68 -33
160 -43 247 -26 66 13 275 79 602 190 114 39 212 71 218 71 24 0 -18 -33 -187
-147 -163 -110 -174 -119 -174 -148 0 -95 -63 -192 -158 -243 l-53 -29 36 -27
c44 -34 44 -46 3 -46 -84 1 -177 35 -257 93 l-54 40 -71 -38 c-39 -21 -88 -49
-108 -62 -43 -26 -48 -27 -48 -12 0 8 50 118 86 190 2 4 -73 37 -166 74 l-171
68 -86 -23 c-442 -117 -668 -270 -808 -549 -55 -111 -77 -206 -79 -341 0 -92
4 -131 22 -193 48 -169 156 -327 280 -412 40 -26 74 -47 76 -44 2 2 -3 37 -12
77 -35 163 35 331 176 420 131 84 649 214 1022 257 343 40 505 12 704 -123 77
-52 71 -64 -16 -36 -58 18 -428 34 -428 18 0 -5 19 -17 43 -26 69 -29 167 -98
249 -177 141 -134 218 -280 252 -483 9 -52 -8 -48 -36 8 -23 47 -148 184 -168
184 -7 0 -8 -14 -3 -42 5 -24 8 -92 7 -153 -2 -141 -29 -235 -110 -377 -49
-86 -108 -226 -99 -236 1 -1 29 14 61 33 113 68 163 78 399 80 227 1 300 11
488 64 379 108 709 299 953 552 232 242 326 501 283 782 -46 310 -196 620
-403 838 -32 33 -55 63 -53 66 18 17 313 -106 434 -182 50 -30 49 -27 -7 74
-62 112 -76 134 -125 206 -110 159 -282 332 -440 443 -201 142 -503 260 -748
292 -68 9 -372 11 -447 3z m-1410 -1302 c0 -26 -40 -82 -78 -108 -37 -24 -120
-58 -127 -51 -13 13 21 87 55 119 53 51 150 77 150 40z M7833 9572 c-28 -4
-54 -10 -57 -12 -2 -3 3 -34 12 -70 12 -48 16 -108 16 -225 -1 -144 -4 -169
-28 -250 -77 -258 -253 -494 -526 -707 -359 -279 -883 -477 -1310 -495 -125
-5 -139 -4 -177 16 -55 28 -81 27 -182 -9 -132 -45 -239 -128 -348 -265 -17
-22 -33 -38 -36 -35 -11 11 -28 239 -22 300 17 179 51 290 131 425 67 113 89
203 81 320 -3 44 -9 95 -13 113 -8 39 -17 40 -152 12 -287 -58 -538 -187 -730
-374 -102 -99 -173 -195 -233 -315 -36 -73 -79 -182 -79 -203 0 -4 21 7 47 26
114 82 352 192 361 167 2 -5 -13 -37 -32 -72 -137 -253 -146 -623 -22 -916 13
-31 25 -52 28 -47 3 5 11 34 18 64 26 114 141 335 198 382 13 12 14 7 8 -37
-15 -113 -18 -287 -6 -382 14 -115 66 -303 115 -415 36 -83 116 -227 126 -228
4 0 9 19 12 43 9 68 73 253 121 352 25 50 70 128 101 174 57 86 142 191 154
191 3 0 6 -66 6 -148 1 -140 2 -152 34 -244 47 -137 54 -144 75 -77 31 96 112
252 173 334 67 91 169 203 176 195 3 -3 -6 -43 -19 -90 -26 -89 -59 -289 -49
-299 13 -12 249 125 375 218 206 151 409 350 514 504 22 31 43 57 48 57 14 0
9 -200 -7 -275 -8 -38 -26 -103 -39 -143 l-25 -73 22 6 c12 4 51 23 87 43 223
122 378 240 546 414 134 141 209 244 285 393 32 64 62 116 66 116 4 0 15 -35
25 -78 21 -93 23 -243 4 -330 -7 -35 -9 -63 -4 -63 19 0 142 123 201 201 106
141 186 338 187 461 0 47 15 56 34 21 59 -108 80 -161 94 -250 l16 -96 24 29
c150 180 222 339 237 521 6 72 -1 130 -32 258 -4 19 3 22 94 33 148 18 292 14
442 -14 l34 -7 -23 34 c-52 75 -177 203 -259 265 -103 78 -273 164 -395 199
-48 14 -94 25 -102 25 -35 0 -6 22 89 69 56 28 134 58 172 67 39 9 74 20 78
24 14 13 -148 91 -278 135 -96 32 -364 52 -482 37z M8747 8389 c-15 -247 -111
-434 -341 -665 -136 -135 -263 -238 -451 -366 -110 -74 -411 -263 -495 -310
-796 -448 -1186 -710 -1570 -1054 -629 -564 -1000 -1235 -1100 -1989 -20 -154
-24 -526 -6 -706 39 -403 140 -802 306 -1204 34 -82 66 -162 72 -177 5 -16 14
-28 18 -28 4 0 21 21 36 48 15 26 64 103 109 172 45 69 142 217 215 330 136
210 480 726 574 860 28 41 128 185 222 320 196 283 433 618 546 772 43 59 78
112 78 117 0 6 -12 8 -27 6 -16 -3 -197 -12 -403 -20 -206 -8 -485 -20 -618
-26 -134 -6 -246 -9 -248 -6 -2 2 48 51 112 108 65 57 142 127 173 155 192
175 666 543 984 763 451 312 1248 811 1997 1251 91 53 189 111 218 128 33 20
52 27 52 19 0 -7 -38 -53 -84 -103 -46 -49 -96 -105 -112 -124 -15 -19 -53
-62 -84 -95 -30 -33 -123 -136 -205 -229 -83 -93 -206 -233 -275 -310 -414
-467 -714 -816 -706 -823 6 -6 776 12 970 24 72 4 107 2 105 -5 -3 -8 -207
-225 -384 -407 -57 -60 -536 -570 -745 -795 -202 -218 -427 -458 -525 -560
-49 -52 -146 -156 -215 -230 -69 -74 -195 -209 -280 -300 -487 -517 -1228
-1332 -1239 -1363 -10 -27 769 412 1129 636 167 104 427 275 516 339 34 23 83
58 110 77 411 287 992 786 1402 1203 81 82 148 145 150 139 4 -11 -8 -35 -118
-246 -179 -345 -340 -607 -532 -868 -82 -113 -103 -147 -86 -142 66 20 550
282 718 389 108 68 333 218 370 246 19 14 71 53 115 86 456 340 852 743 1150
1169 486 695 708 1279 709 1865 0 311 -57 574 -179 820 -223 451 -644 807
-1194 1009 -275 101 -588 174 -852 197 l-76 6 -6 -103z M3551 7909 c-211 -27
-433 -113 -626 -242 -88 -59 -242 -219 -309 -321 -179 -272 -256 -558 -256
-951 0 -507 149 -1066 439 -1650 356 -716 932 -1486 1611 -2154 134 -132 322
-302 327 -297 3 2 -5 23 -17 47 -65 127 -199 523 -255 754 -112 466 -142 838
-96 1201 43 332 117 582 268 904 55 117 190 346 252 429 23 30 41 60 41 66 0
6 -12 22 -26 36 -14 13 -54 60 -87 103 -34 43 -74 93 -88 110 -45 53 -193 287
-248 391 -178 339 -274 664 -288 978 l-6 138 -34 -48 c-99 -138 -181 -375
-195 -563 -5 -65 -22 -35 -50 90 -67 296 -63 588 12 854 17 59 30 113 30 121
0 13 -25 15 -167 14 -93 -1 -197 -5 -232 -10z"/>
</g>
</svg>